PathFileType	4	(X/Y/Z)	c:/Users/goper/Files/vsCode/490R/osim_files/C10/C10_SSWS_01.trc
DataRate	CameraRate	NumFrames	NumMarkers	Units                	OrigDataRate	OrigDataStartFrame	OrigNumFrames
250.00	250.00	6	36	mm	250.0	1556	2489
                Frame#	Time	LPSIS			LASIS			LTH1			LTH2			LTH3			LTH4			LLFE			LMFE			LSH1			LSH2			LSH3			LSH4			LLMAL			LMMAL			LCAL			LMTP5			LTOE			LMTP1			RPSIS			RASIS			RTH1			RTH2			RTH3			RTH4			RLFE			RMFE			RSH1			RSH2			RSH3			RSH4			RLMAL			RMMAL			RCAL			RMTP1			RTOE			RMTP5		
		X1	Y1	Z1	X2	Y2	Z2	X3	Y3	Z3	X4	Y4	Z4	X5	Y5	Z5	X6	Y6	Z6	X7	Y7	Z7	X8	Y8	Z8	X9	Y9	Z9	X10	Y10	Z10	X11	Y11	Z11	X12	Y12	Z12	X13	Y13	Z13	X14	Y14	Z14	X15	Y15	Z15	X16	Y16	Z16	X17	Y17	Z17	X18	Y18	Z18	X19	Y19	Z19	X20	Y20	Z20	X21	Y21	Z21	X22	Y22	Z22	X23	Y23	Z23	X24	Y24	Z24	X25	Y25	Z25	X26	Y26	Z26	X27	Y27	Z27	X28	Y28	Z28	X29	Y29	Z29	X30	Y30	Z30	X31	Y31	Z31	X32	Y32	Z32	X33	Y33	Z33	X34	Y34	Z34	X35	Y35	Z35	X36	Y36	Z36

1556	6.22000	-3427.72778	560.20605	156.83812	0.00000	0.00000	0.00000	-3288.08667	709.79816	449.43207	-3268.98657	752.86798	454.72122	-3337.30542	744.29224	457.43500	0.00000	0.00000	0.00000	-3310.43530	1010.28870	415.24405	0.00000	0.00000	0.00000	0.00000	0.00000	0.00000	0.00000	0.00000	0.00000	0.00000	0.00000	0.00000	-3430.57275	1106.97986	183.58157	0.00000	0.00000	0.00000	-3529.76514	119.82918	332.98517	-3494.91797	37.24748	294.75272	0.00000	0.00000	0.00000	-3080.62524	1013.95258	228.84654	0.00000	0.00000	0.00000	0.00000	0.00000	0.00000	-3224.22241	994.41382	83.19771	0.00000	0.00000	0.00000	-3107.84790	702.49017	61.01826	-3166.76953	745.84149	47.46006	-3159.43188	699.89697	50.65945	-3105.45117	476.69333	128.05916	-3017.93555	400.17300	128.49777	0.00000	0.00000	0.00000	0.00000	0.00000	0.00000	0.00000	0.00000	0.00000	-3019.65845	354.35657	129.55553	-2988.61328	93.95692	193.76363	-3007.75903	104.93765	273.10977	-2928.85620	49.00500	234.46242	0.00000	0.00000	0.00000	0.00000	0.00000	0.00000	-3101.28320	35.41821	162.27319
1557	6.22400	0.00000	0.00000	0.00000	0.00000	0.00000	0.00000	-3292.21680	708.73419	449.50894	-3273.26733	751.92120	454.66446	0.00000	0.00000	0.00000	0.00000	0.00000	0.00000	-3315.90088	1009.52490	415.04242	0.00000	0.00000	0.00000	0.00000	0.00000	0.00000	0.00000	0.00000	0.00000	0.00000	0.00000	0.00000	-3434.78271	1106.05469	182.85721	0.00000	0.00000	0.00000	-3538.34644	120.55373	331.29257	-3504.06885	37.64788	293.09296	0.00000	0.00000	0.00000	0.00000	0.00000	0.00000	0.00000	0.00000	0.00000	-3096.51343	1010.96704	230.84500	-3229.05176	993.46448	83.10380	0.00000	0.00000	0.00000	-3111.16138	702.27179	61.03084	-3170.16943	745.31854	47.23120	-3165.75317	698.08551	50.63722	-3108.08252	476.38120	128.01227	-3020.00049	400.39908	128.67686	0.00000	0.00000	0.00000	-2997.23511	332.19876	165.38560	0.00000	0.00000	0.00000	-3021.77271	354.44675	129.73065	-2988.85107	94.34616	193.84810	-3008.28027	105.15642	273.25330	-2928.95386	49.26310	234.62730	0.00000	0.00000	0.00000	0.00000	0.00000	0.00000	-3101.30225	35.43901	162.28337
1558	6.22800	0.00000	0.00000	0.00000	0.00000	0.00000	0.00000	-3296.34302	707.71808	449.63913	-3277.55420	750.97943	454.61746	0.00000	0.00000	0.00000	0.00000	0.00000	0.00000	-3321.48608	1008.82898	414.88364	0.00000	0.00000	0.00000	0.00000	0.00000	0.00000	0.00000	0.00000	0.00000	0.00000	0.00000	0.00000	-3438.96729	1105.08813	182.06920	0.00000	0.00000	0.00000	-3546.44556	121.13360	329.75665	-3512.70020	37.86447	291.58618	0.00000	0.00000	0.00000	-3068.92993	1030.18164	238.74554	0.00000	0.00000	0.00000	-3101.53125	1010.20111	230.89059	-3233.90308	992.48126	83.03529	0.00000	0.00000	0.00000	-3114.48096	702.04803	60.97641	-3173.59229	744.78552	46.98697	-3169.26611	697.56470	50.43896	-3110.65845	476.03616	127.94494	-3022.17603	400.64050	128.85857	0.00000	0.00000	0.00000	0.00000	0.00000	0.00000	0.00000	0.00000	0.00000	-3023.97632	354.53778	129.88533	-2989.13354	94.70481	193.97913	-3008.75513	105.41888	273.39789	-2929.15259	49.45170	234.83144	0.00000	0.00000	0.00000	0.00000	0.00000	0.00000	-3101.22876	35.44028	162.28662
1559	6.23200	0.00000	0.00000	0.00000	-3145.87964	688.51318	68.86327	-3297.88672	704.74280	449.54214	-3281.85913	750.11749	454.58597	0.00000	0.00000	0.00000	0.00000	0.00000	0.00000	-3326.96704	1008.09833	414.71991	0.00000	0.00000	0.00000	0.00000	0.00000	0.00000	0.00000	0.00000	0.00000	0.00000	0.00000	0.00000	-3443.16162	1104.15552	181.28671	0.00000	0.00000	0.00000	-3553.93188	121.48016	328.25671	-3520.60767	37.97802	290.20972	0.00000	0.00000	0.00000	0.00000	0.00000	0.00000	0.00000	0.00000	0.00000	-3106.58813	1009.45557	230.85387	-3238.80273	991.49640	82.91799	0.00000	0.00000	0.00000	-3117.83887	701.87683	60.89957	-3177.01099	744.18054	46.73464	-3172.89282	697.08887	50.22860	-3113.40503	475.77740	127.85522	-3024.38330	400.87439	129.00351	0.00000	0.00000	0.00000	0.00000	0.00000	0.00000	0.00000	0.00000	0.00000	-3026.21899	354.70621	130.01915	-2989.39917	95.13724	194.11786	-3009.20776	105.75002	273.54034	-2929.34277	49.70932	235.06863	0.00000	0.00000	0.00000	0.00000	0.00000	0.00000	-3101.21387	35.48234	162.30499
1560	6.23600	0.00000	0.00000	0.00000	-3149.07007	687.94446	68.75532	-3302.50879	703.98425	449.58514	-3286.42065	749.33630	454.58588	0.00000	0.00000	0.00000	0.00000	0.00000	0.00000	-3332.48169	1007.43866	414.55862	0.00000	0.00000	0.00000	0.00000	0.00000	0.00000	0.00000	0.00000	0.00000	0.00000	0.00000	0.00000	-3447.32446	1103.17847	180.52238	0.00000	0.00000	0.00000	-3560.77710	121.54156	326.82410	-3527.65723	37.89566	288.99243	0.00000	0.00000	0.00000	-3519.51025	907.60004	81.25916	0.00000	0.00000	0.00000	-3100.79688	1010.88348	228.80840	-3243.64185	990.49561	82.83642	0.00000	0.00000	0.00000	-3121.34570	701.65887	60.84436	0.00000	0.00000	0.00000	-3176.61035	696.57581	50.07135	-3116.24658	475.48187	127.80323	-3026.59009	401.16772	129.14081	0.00000	0.00000	0.00000	0.00000	0.00000	0.00000	0.00000	0.00000	0.00000	-3028.59814	354.88824	130.14198	-2989.72412	95.60490	194.23157	-3009.54346	106.13618	273.65274	-2929.36914	50.07475	235.29710	0.00000	0.00000	0.00000	0.00000	0.00000	0.00000	-3101.22656	35.50715	162.30530
1561	6.24000	0.00000	0.00000	0.00000	0.00000	0.00000	0.00000	-3307.41431	703.28601	449.58307	-3291.05322	748.59705	454.50558	0.00000	0.00000	0.00000	0.00000	0.00000	0.00000	-3337.90625	1006.77985	414.40543	0.00000	0.00000	0.00000	0.00000	0.00000	0.00000	0.00000	0.00000	0.00000	0.00000	0.00000	0.00000	-3451.50195	1102.25085	179.67950	0.00000	0.00000	0.00000	-3567.22827	121.33746	325.54544	-3534.32178	37.49735	287.99033	0.00000	0.00000	0.00000	0.00000	0.00000	0.00000	0.00000	0.00000	0.00000	-3105.77515	1010.07666	228.84338	-3248.59058	989.52258	82.74175	0.00000	0.00000	0.00000	-3124.90820	701.44879	60.78495	0.00000	0.00000	0.00000	-3180.30176	696.04041	49.87347	-3119.13037	475.15283	127.70806	-3028.94849	401.42456	129.30257	0.00000	0.00000	0.00000	0.00000	0.00000	0.00000	0.00000	0.00000	0.00000	-3030.96729	354.98273	130.24634	-2990.09985	96.08186	194.33510	-3010.11670	106.49261	273.78815	-2929.57788	50.39285	235.51810	0.00000	0.00000	0.00000	0.00000	0.00000	0.00000	-3101.22339	35.54549	162.33742
